# xmcd CD database file
#
# Track frame offsets:
#	150
#	26839
#	50777
#	70925
#	92321
#	107475
#	127658
#	156041
#	177325
#	200817
#	222777
#	241707
#	266840
#
# Disc length: 3773 seconds
#
# Revision: 0
# Processed by: cddbd v1.5.2PL0 Copyright (c) Steve Scherf et al.
# Submitted via: CDex 1.51
#
DISCID=b00ebb0d
DTITLE=Keith Urban - Love, Pain and The Whole Crazy Thing
DYEAR=2006
DGENRE=Country
TTITLE0=Once In A Lifetime
TTITLE1=Shine
TTITLE2=I Told You So
TTITLE3=I Can't Stop Loving You
TTITLE4=Won't Let You Down
TTITLE5=Faster Car
TTITLE6=Stupid Boy
TTITLE7=Used To The Pain
TTITLE8=Raise The Barn
TTITLE9=God Made Woman
TTITLE10=Tu Compañía
TTITLE11=Everybody
TTITLE12=Got It Right This Time
EXTD=YEAR: 2006
EXTT0=
EXTT1=
EXTT2=
EXTT3=
EXTT4=
EXTT5=
EXTT6=
EXTT7=
EXTT8=
EXTT9=
EXTT10=
EXTT11=
EXTT12=
PLAYORDER=
